<svg xmlns="http://www.w3.org/2000/svg" viewBox="0 0 128 128" role="img" aria-label="NC brand icon">
  <defs>
    <linearGradient id="g" x1="0" y1="0" x2="1" y2="1">
      <stop offset="0%" stop-color="#0b63ce"/>
      <stop offset="100%" stop-color="#0a9ca8"/>
    </linearGradient>
  </defs>
  <rect x="6" y="6" width="116" height="116" rx="28" fill="url(#g)"/>
  <path d="M34 90V38h10l26 34V38h10v52H70L44 56v34z" fill="#ffffff"/>
  <path d="M95 82c-5 6-11 9-19 9-15 0-25-11-25-27s10-27 25-27c8 0 14 3 19 9l-7 7c-3-4-7-6-12-6-9 0-15 7-15 17s6 17 15 17c5 0 9-2 12-6z" fill="#dff8ff"/>
</svg>
